<svg xmlns="http://www.w3.org/2000/svg" viewBox="0 0 24 24" fill="#000000" id="Plus--Streamline-Phosphor" height="24" width="24">
  <desc>
    Plus Streamline Icon: https://streamlinehq.com
  </desc>
  <path d="M23.759999999999998 12c0 0.54121875 -0.438778125 0.9799781249999999 -0.9799968750000001 0.9799968750000001H12.979996875000001v9.80000625c0 0.7543968750000001 -0.816665625 1.2259031249999999 -1.47 0.8487 -0.30320625 -0.175059375 -0.48999375 -0.49858125 -0.48999375 -0.8487V12.979996875000001H1.2199968749999999c-0.7543968750000001 0 -1.2259031249999999 -0.816665625 -0.8487 -1.47 0.17506875 -0.30322499999999997 0.498571875 -0.49001249999999996 0.8487 -0.48999375h9.80000625V1.2199968749999999c0 -0.7543968750000001 0.816665625 -1.2259031249999999 1.47 -0.8487 0.30320625 0.175059375 0.48999375 0.49858125 0.48999375 0.8487v9.80000625h9.80000625c0.54121875 0.00001875 0.9799968750000001 0.438778125 0.9799968750000001 0.9799968750000001Z" stroke-width="0.0938"></path>
</svg>