<svg xmlns="http://www.w3.org/2000/svg" viewBox="0 0 24 24" id="Trash-Can--Streamline-Font-Awesome" height="24" width="24">
  <desc>
    Trash Can Streamline Icon: https://streamlinehq.com
  </desc>
<!--! Font Awesome Free 6.5.2 by @fontawesome - https://fontawesome.com License - https://fontawesome.com/license/free (Icons: CC BY 4.0, Fonts: SIL OFL 1.1, Code: MIT License) Copyright 2024 Fonticons, Inc.-->
  <path d="M7.92075 1.0530964285714286C8.1688125 0.552375 8.678721428571428 0.24000000000000002 9.2345625 0.24000000000000002h5.530874999999999c0.5558464285714285 0 1.0657499999999998 0.312375 1.3138124999999998 0.8130964285714285L16.41 1.71h4.409999999999999c0.8130910714285714 0 1.47 0.6569089285714286 1.47 1.47S21.63309107142857 4.6499999999999995 20.819999999999997 4.6499999999999995H3.1799999999999997c-0.8130964285714285 0 -1.47 -0.6569035714285714 -1.47 -1.47s0.6569035714285714 -1.47 1.47 -1.47h4.409999999999999l0.33075 -0.6569035714285714ZM3.1799999999999997 6.119999999999999h17.639999999999997v14.699999999999998c0 1.6215910714285713 -1.3184089285714284 2.94 -2.94 2.94H6.119999999999999c-1.6215964285714284 0 -2.94 -1.3184089285714284 -2.94 -2.94v-14.699999999999998Zm4.409999999999999 2.94c-0.40425 0 -0.735 0.33075 -0.735 0.735v10.290000000000001c0 0.40425 0.33075 0.735 0.735 0.735s0.735 -0.33075 0.735 -0.735V9.795c0 -0.40425 -0.33075 -0.735 -0.735 -0.735Zm4.409999999999999 0c-0.40425 0 -0.735 0.33075 -0.735 0.735v10.290000000000001c0 0.40425 0.33075 0.735 0.735 0.735s0.735 -0.33075 0.735 -0.735V9.795c0 -0.40425 -0.33075 -0.735 -0.735 -0.735Zm4.409999999999999 0c-0.40425 0 -0.735 0.33075 -0.735 0.735v10.290000000000001c0 0.40425 0.33075 0.735 0.735 0.735s0.735 -0.33075 0.735 -0.735V9.795c0 -0.40425 -0.33075 -0.735 -0.735 -0.735Z" fill="#000000" stroke-width="0.0536"></path>
</svg>